<?xml version="1.0" encoding="utf-8"?>
<!-- Generator: Adobe Illustrator 19.0.0, SVG Export Plug-In . SVG Version: 6.00 Build 0)  -->
<svg version="1.1" id="Layer_1" xmlns="http://www.w3.org/2000/svg" xmlns:xlink="http://www.w3.org/1999/xlink" x="0px" y="0px"
	 viewBox="110 -149 430 408" style="enable-background:new 110 -149 430 408;" xml:space="preserve">
<style type="text/css">
	.st0{fill:none;stroke:#050501;stroke-width:5;stroke-miterlimit:10;}
	.st1{fill:#020000;}
	.st2{fill:#050102;}
</style>
<ellipse class="st0" cx="336" cy="56" rx="188" ry="188"/>
<g id="XMLID_15_">
	<path id="XMLID_3_" class="st1" d="M277.5,100L277.5,100c-3,0-5.5-2.5-5.5-5.5v-89c0-3,2.5-5.5,5.5-5.5l0,0c3,0,5.5,2.5,5.5,5.5v89
		C283,97.5,280.5,100,277.5,100z"/>
	<path id="XMLID_5_" class="st1" d="M312.5,38.4L274.2,9.9c-2.4-1.8-2.9-5.3-1.1-7.7l0,0c1.8-2.4,5.3-2.9,7.7-1.1l38.3,28.5
		c2.4,1.8,2.9,5.3,1.1,7.7l0,0C318.4,39.7,314.9,40.2,312.5,38.4z"/>
	<path id="XMLID_6_" class="st1" d="M358.5,99L358.5,99c-3,0-5.5-2.5-5.5-5.5v-89c0-3,2.5-5.5,5.5-5.5l0,0c3,0,5.5,2.5,5.5,5.5v89
		C364,96.5,361.5,99,358.5,99z"/>
	<path id="XMLID_4_" class="st1" d="M321.5,38.4l38.3-28.5c2.4-1.8,2.9-5.3,1.1-7.7l0,0c-1.8-2.4-5.3-2.9-7.7-1.1l-38.3,28.5
		c-2.4,1.8-2.9,5.3-1.1,7.7l0,0C315.6,39.7,319.1,40.2,321.5,38.4z"/>
</g>
<g id="XMLID_16_">
	<path id="XMLID_7_" class="st2" d="M468.5,10h-63c-2.5,0-4.5-2-4.5-4.5l0,0c0-2.5,2-4.5,4.5-4.5h63c2.5,0,4.5,2,4.5,4.5l0,0
		C473,8,471,10,468.5,10z"/>
	<path id="XMLID_8_" class="st2" d="M401,50.5v-45c0-2.5,2-4.5,4.5-4.5l0,0c2.5,0,4.5,2,4.5,4.5v45c0,2.5-2,4.5-4.5,4.5l0,0
		C403,55,401,53,401,50.5z"/>
	<path id="XMLID_9_" class="st2" d="M468.5,55h-63c-2.5,0-4.5-2-4.5-4.5l0,0c0-2.5,2-4.5,4.5-4.5h63c2.5,0,4.5,2,4.5,4.5l0,0
		C473,53,471,55,468.5,55z"/>
	<path id="XMLID_10_" class="st2" d="M464,95.5v-45c0-2.5,2-4.5,4.5-4.5l0,0c2.5,0,4.5,2,4.5,4.5v45c0,2.5-2,4.5-4.5,4.5l0,0
		C466,100,464,98,464,95.5z"/>
	<path id="XMLID_11_" class="st2" d="M468.5,100h-63c-2.5,0-4.5-2-4.5-4.5l0,0c0-2.5,2-4.5,4.5-4.5h63c2.5,0,4.5,2,4.5,4.5l0,0
		C473,98,471,100,468.5,100z"/>
</g>
<g id="XMLID_12_">
	<path id="XMLID_1_" class="st1" d="M196.5,96.7L196.5,96.7c-3,0-5.5-2.5-5.5-5.5v-89c0-3,2.5-5.5,5.5-5.5l0,0c3,0,5.5,2.5,5.5,5.5
		v89C202,94.2,199.5,96.7,196.5,96.7z"/>
	<path id="XMLID_2_" class="st1" d="M240.5,100h-45c-2.5,0-4.5-2-4.5-4.5v-3.1c0-2.5,2-4.5,4.5-4.5h45c2.5,0,4.5,2,4.5,4.5v3.1
		C245,98,243,100,240.5,100z"/>
	<path id="XMLID_14_" class="st1" d="M208,83.7"/>
	<path id="XMLID_13_" class="st1" d="M208,2.7"/>
</g>
</svg>
