<?xml version="1.0" encoding="utf-8"?>
<!-- Generator: Adobe Illustrator 19.0.0, SVG Export Plug-In . SVG Version: 6.00 Build 0)  -->
<svg version="1.1" id="Layer_1" xmlns="http://www.w3.org/2000/svg" xmlns:xlink="http://www.w3.org/1999/xlink" x="0px" y="0px"
	 viewBox="110 -143 430 409" style="enable-background:new 110 -143 430 409;" xml:space="preserve">
<style type="text/css">
	.st0{fill:none;stroke:#FFFFFD;stroke-width:5;stroke-miterlimit:10;}
	.st1{fill:#FFFFFF;}
	.st2{fill:#FCF5F7;}
	.st3{fill:#FCFAFA;}
</style>
<ellipse class="st0" cx="326" cy="56" rx="188" ry="188"/>
<g id="XMLID_15_">
	<path id="XMLID_3_" class="st1" d="M267.5,100L267.5,100c-3,0-5.5-2.5-5.5-5.5v-89c0-3,2.5-5.5,5.5-5.5l0,0c3,0,5.5,2.5,5.5,5.5v89
		C273,97.5,270.5,100,267.5,100z"/>
	<path id="XMLID_5_" class="st1" d="M302.5,38.4L264.2,9.9c-2.4-1.8-2.9-5.3-1.1-7.7l0,0c1.8-2.4,5.3-2.9,7.7-1.1l38.3,28.5
		c2.4,1.8,2.9,5.3,1.1,7.7l0,0C308.4,39.7,304.9,40.2,302.5,38.4z"/>
	<path id="XMLID_6_" class="st1" d="M348.5,99L348.5,99c-3,0-5.5-2.5-5.5-5.5v-89c0-3,2.5-5.5,5.5-5.5l0,0c3,0,5.5,2.5,5.5,5.5v89
		C354,96.5,351.5,99,348.5,99z"/>
	<path id="XMLID_4_" class="st1" d="M311.5,38.4l38.3-28.5c2.4-1.8,2.9-5.3,1.1-7.7l0,0c-1.8-2.4-5.3-2.9-7.7-1.1l-38.3,28.5
		c-2.4,1.8-2.9,5.3-1.1,7.7l0,0C305.6,39.7,309.1,40.2,311.5,38.4z"/>
</g>
<g id="XMLID_16_">
	<path id="XMLID_7_" class="st2" d="M458.5,10h-63c-2.5,0-4.5-2-4.5-4.5l0,0c0-2.5,2-4.5,4.5-4.5h63c2.5,0,4.5,2,4.5,4.5l0,0
		C463,8,461,10,458.5,10z"/>
	<path id="XMLID_8_" class="st2" d="M391,50.5v-45c0-2.5,2-4.5,4.5-4.5l0,0c2.5,0,4.5,2,4.5,4.5v45c0,2.5-2,4.5-4.5,4.5l0,0
		C393,55,391,53,391,50.5z"/>
	<path id="XMLID_9_" class="st2" d="M458.5,55h-63c-2.5,0-4.5-2-4.5-4.5l0,0c0-2.5,2-4.5,4.5-4.5h63c2.5,0,4.5,2,4.5,4.5l0,0
		C463,53,461,55,458.5,55z"/>
	<path id="XMLID_10_" class="st2" d="M454,95.5v-45c0-2.5,2-4.5,4.5-4.5l0,0c2.5,0,4.5,2,4.5,4.5v45c0,2.5-2,4.5-4.5,4.5l0,0
		C456,100,454,98,454,95.5z"/>
	<path id="XMLID_11_" class="st2" d="M458.5,100h-63c-2.5,0-4.5-2-4.5-4.5l0,0c0-2.5,2-4.5,4.5-4.5h63c2.5,0,4.5,2,4.5,4.5l0,0
		C463,98,461,100,458.5,100z"/>
</g>
<g id="XMLID_12_">
	<path id="XMLID_1_" class="st3" d="M186.5,96.7L186.5,96.7c-3,0-5.5-2.5-5.5-5.5v-89c0-3,2.5-5.5,5.5-5.5l0,0c3,0,5.5,2.5,5.5,5.5
		v89C192,94.2,189.5,96.7,186.5,96.7z"/>
	<path id="XMLID_2_" class="st3" d="M230.5,100h-45c-2.5,0-4.5-2-4.5-4.5v-3.1c0-2.5,2-4.5,4.5-4.5h45c2.5,0,4.5,2,4.5,4.5v3.1
		C235,98,233,100,230.5,100z"/>
	<path id="XMLID_14_" class="st3" d="M198,83.7"/>
	<path id="XMLID_13_" class="st3" d="M198,2.7"/>
</g>
</svg>
