<?xml version="1.0" encoding="utf-8"?>
<!-- Generator: Adobe Illustrator 19.0.0, SVG Export Plug-In . SVG Version: 6.00 Build 0)  -->
<svg version="1.1" id="LMS" xmlns="http://www.w3.org/2000/svg" xmlns:xlink="http://www.w3.org/1999/xlink" x="0px" y="0px"
	 viewBox="127 165.5 866.2 463.5" style="enable-background:new 127 165.5 866.2 463.5;" xml:space="preserve">
<style type="text/css">
	.st0{fill:none;}
	.st1{fill:none;stroke:#231F20;stroke-width:4.32;}
	.st2{fill:#B2AFAF;}
	.st3{fill:url(#SVGID_1_);}
	.st4{fill:url(#SVGID_2_);}
	.st5{fill:url(#SVGID_3_);}
	.st6{fill:url(#SVGID_4_);}
	.st7{stroke:#070000;stroke-miterlimit:10;}
</style>
<pattern  x="127" y="629" width="72" height="72" patternUnits="userSpaceOnUse" id="_x31_0_lpi_60_x25_" viewBox="72.3 -72 72 72" style="overflow:visible;">
	<g>
		<polygon class="st0" points="72.3,-72 144.3,-72 144.3,0 72.3,0 		"/>
		<g>
			<line class="st1" x1="144" y1="-3.6" x2="216.5" y2="-3.6"/>
			<line class="st1" x1="144" y1="-18" x2="216.5" y2="-18"/>
			<line class="st1" x1="144" y1="-32.4" x2="216.5" y2="-32.4"/>
			<line class="st1" x1="144" y1="-46.8" x2="216.5" y2="-46.8"/>
			<line class="st1" x1="144" y1="-61.2" x2="216.5" y2="-61.2"/>
			<line class="st1" x1="144" y1="-10.8" x2="216.5" y2="-10.8"/>
			<line class="st1" x1="144" y1="-25.2" x2="216.5" y2="-25.2"/>
			<line class="st1" x1="144" y1="-39.6" x2="216.5" y2="-39.6"/>
			<line class="st1" x1="144" y1="-54" x2="216.5" y2="-54"/>
			<line class="st1" x1="144" y1="-68.4" x2="216.5" y2="-68.4"/>
		</g>
		<g>
			<line class="st1" x1="72" y1="-3.6" x2="144.5" y2="-3.6"/>
			<line class="st1" x1="72" y1="-18" x2="144.5" y2="-18"/>
			<line class="st1" x1="72" y1="-32.4" x2="144.5" y2="-32.4"/>
			<line class="st1" x1="72" y1="-46.8" x2="144.5" y2="-46.8"/>
			<line class="st1" x1="72" y1="-61.2" x2="144.5" y2="-61.2"/>
			<line class="st1" x1="72" y1="-10.8" x2="144.5" y2="-10.8"/>
			<line class="st1" x1="72" y1="-25.2" x2="144.5" y2="-25.2"/>
			<line class="st1" x1="72" y1="-39.6" x2="144.5" y2="-39.6"/>
			<line class="st1" x1="72" y1="-54" x2="144.5" y2="-54"/>
			<line class="st1" x1="72" y1="-68.4" x2="144.5" y2="-68.4"/>
		</g>
		<g>
			<line class="st1" x1="0" y1="-3.6" x2="72.5" y2="-3.6"/>
			<line class="st1" x1="0" y1="-18" x2="72.5" y2="-18"/>
			<line class="st1" x1="0" y1="-32.4" x2="72.5" y2="-32.4"/>
			<line class="st1" x1="0" y1="-46.8" x2="72.5" y2="-46.8"/>
			<line class="st1" x1="0" y1="-61.2" x2="72.5" y2="-61.2"/>
			<line class="st1" x1="0" y1="-10.8" x2="72.5" y2="-10.8"/>
			<line class="st1" x1="0" y1="-25.2" x2="72.5" y2="-25.2"/>
			<line class="st1" x1="0" y1="-39.6" x2="72.5" y2="-39.6"/>
			<line class="st1" x1="0" y1="-54" x2="72.5" y2="-54"/>
			<line class="st1" x1="0" y1="-68.4" x2="72.5" y2="-68.4"/>
		</g>
	</g>
</pattern>
<g id="Bold_1_">
	<polygon class="st2" points="265.4,258.1 265.2,258.1 264.8,471.4 341,471.4 341,435.6 265.4,435.6 	"/>
	<polygon class="st2" points="515.6,413.7 515.6,471.4 558.8,471.4 558.8,450.4 515.7,413.2 	"/>
	<polygon class="st2" points="462.5,412.4 447.3,354.4 365.9,284.4 365.9,471.4 409,471.4 409,413.7 405,324.8 447.7,471.4 
		477,471.4 498.2,398.2 472,375.6 	"/>
	<path class="st2" d="M683.7,352.5l-51.2,20.4c6,3.2,12.7,6.2,20.2,9c11.7,4.8,19.8,9.4,24.2,13.8c4.4,4.4,6.7,11,6.7,19.7
		c0,15.9-7.5,23.9-22.6,23.9c-10.8,0-18.7-2.8-23.4-8.3c-4.8-5.6-7.2-14.5-7.2-26.8h-43.2c0,14.4,3.2,26.8,9.6,37.4
		c6.4,10.5,15.3,18.7,26.6,24.3c11.3,5.7,23.9,8.5,37.6,8.5c20.3,0,36.4-5.2,48.2-15.7c11.8-10.4,17.7-25,17.7-43.5
		c0-16.9-4.7-30.8-14.1-41.7C706,365.5,696.3,358.6,683.7,352.5z"/>
</g>
<g id="Lined">
	
		<pattern  id="SVGID_1_" xlink:href="#_x31_0_lpi_60_x25_" patternTransform="matrix(0.7071 -0.7071 0.7071 0.7071 3748.9993 -7903.2905)">
	</pattern>
	<polygon class="st3" points="216.2,249.9 216.2,463.2 258.7,463.2 259,249.9 	"/>
	
		<pattern  id="SVGID_2_" xlink:href="#_x31_0_lpi_60_x25_" patternTransform="matrix(0.7071 -0.7071 0.7071 0.7071 3748.9993 -7903.2905)">
	</pattern>
	<polygon class="st4" points="416,249.9 359.8,249.9 359.8,276.2 441.2,346.2 	"/>
	
		<pattern  id="SVGID_3_" xlink:href="#_x31_0_lpi_60_x25_" patternTransform="matrix(0.7071 -0.7071 0.7071 0.7071 3748.9993 -7903.2905)">
	</pattern>
	<polygon class="st5" points="465.8,367.4 492.1,390 513.4,316.5 509.5,405 552.7,442.2 552.7,249.9 496.4,249.9 	"/>
	
		<pattern  id="SVGID_4_" xlink:href="#_x31_0_lpi_60_x25_" patternTransform="matrix(0.7071 -0.7071 0.7071 0.7071 3748.9993 -7903.2905)">
	</pattern>
	<path class="st6" d="M661.2,337.5c-11.9-5.1-20.2-10-24.9-14.7c-4.7-4.7-7-10-7-15.9c0-7.5,2.1-13.5,6.3-17.9
		c4.2-4.4,10.1-6.7,17.6-6.7c8,0,14.1,2.6,18.4,7.8c4.2,5.2,6.4,12.8,6.4,22.8h42.9c0-12.8-2.8-24.2-8.3-34.3
		c-5.5-10.1-13.4-17.8-23.7-23.4c-10.3-5.5-21.9-8.3-35-8.3c-19.6,0-35.8,5.4-48.6,16.3c-12.7,10.9-19.1,25.3-19.1,43.3
		c0,14.8,4.7,27.7,14.1,38.6c6.1,7.1,14.8,13.6,26,19.5l51.2-20.4C672.5,341.9,667.1,339.6,661.2,337.5z"/>
</g>
<g id="Bold">
	<polygon class="st7" points="259.4,249.9 259.2,249.9 258.8,463.1 335,463.1 335,427.4 259.4,427.4 	"/>
	<polygon class="st7" points="509.6,405.4 509.6,463.1 552.8,463.1 552.8,442.1 509.6,405 	"/>
	<polygon class="st7" points="456.4,404.1 441.3,346.2 359.9,276.1 359.9,463.1 403,463.1 403,405.4 399,316.5 441.6,463.1 
		470.9,463.1 492.2,390 466,367.4 	"/>
	<path d="M677.7,344.3l-51.2,20.4c6,3.2,12.7,6.2,20.2,9c11.7,4.8,19.8,9.4,24.2,13.8c4.4,4.4,6.7,11,6.7,19.7
		c0,15.9-7.5,23.9-22.6,23.9c-10.8,0-18.7-2.8-23.4-8.3c-4.8-5.6-7.2-14.5-7.2-26.8h-43.2c0,14.4,3.2,26.8,9.6,37.4
		c6.4,10.5,15.3,18.7,26.6,24.3c11.3,5.7,23.9,8.5,37.6,8.5c20.3,0,36.4-5.2,48.2-15.7c11.8-10.4,17.7-25,17.7-43.5
		c0-16.9-4.7-30.8-14.1-41.7C700,357.3,690.3,350.4,677.7,344.3z"/>
</g>
</svg>
