<?xml version="1.0" encoding="utf-8"?>
<!-- Generator: Adobe Illustrator 19.0.0, SVG Export Plug-In . SVG Version: 6.00 Build 0)  -->
<svg version="1.1" id="Layer_1" xmlns="http://www.w3.org/2000/svg" xmlns:xlink="http://www.w3.org/1999/xlink" x="0px" y="0px"
	 viewBox="96 -92 430 397" style="enable-background:new 96 -92 430 397;" xml:space="preserve">
<style type="text/css">
	.st0{fill:none;stroke:#FFFFFD;stroke-width:5;stroke-miterlimit:10;}
	.st1{fill:#FFFFFF;}
	.st2{fill:#FCF5F7;}
	.st3{fill:#FCFAFA;}
</style>
<ellipse class="st0" cx="296" cy="102" rx="188" ry="188"/>
<g id="XMLID_15_">
	<path id="XMLID_3_" class="st1" d="M237.5,146L237.5,146c-3,0-5.5-2.5-5.5-5.5v-89c0-3,2.5-5.5,5.5-5.5l0,0c3,0,5.5,2.5,5.5,5.5v89
		C243,143.5,240.5,146,237.5,146z"/>
	<path id="XMLID_5_" class="st1" d="M272.5,84.4l-38.3-28.5c-2.4-1.8-2.9-5.3-1.1-7.7l0,0c1.8-2.4,5.3-2.9,7.7-1.1l38.3,28.5
		c2.4,1.8,2.9,5.3,1.1,7.7l0,0C278.4,85.7,274.9,86.2,272.5,84.4z"/>
	<path id="XMLID_6_" class="st1" d="M318.5,145L318.5,145c-3,0-5.5-2.5-5.5-5.5v-89c0-3,2.5-5.5,5.5-5.5l0,0c3,0,5.5,2.5,5.5,5.5v89
		C324,142.5,321.5,145,318.5,145z"/>
	<path id="XMLID_4_" class="st1" d="M281.5,84.4l38.3-28.5c2.4-1.8,2.9-5.3,1.1-7.7l0,0c-1.8-2.4-5.3-2.9-7.7-1.1l-38.3,28.5
		c-2.4,1.8-2.9,5.3-1.1,7.7l0,0C275.6,85.7,279.1,86.2,281.5,84.4z"/>
</g>
<g id="XMLID_16_">
	<path id="XMLID_7_" class="st2" d="M428.5,56h-63c-2.5,0-4.5-2-4.5-4.5l0,0c0-2.5,2-4.5,4.5-4.5h63c2.5,0,4.5,2,4.5,4.5l0,0
		C433,54,431,56,428.5,56z"/>
	<path id="XMLID_8_" class="st2" d="M361,96.5v-45c0-2.5,2-4.5,4.5-4.5l0,0c2.5,0,4.5,2,4.5,4.5v45c0,2.5-2,4.5-4.5,4.5l0,0
		C363,101,361,99,361,96.5z"/>
	<path id="XMLID_9_" class="st2" d="M428.5,101h-63c-2.5,0-4.5-2-4.5-4.5l0,0c0-2.5,2-4.5,4.5-4.5h63c2.5,0,4.5,2,4.5,4.5l0,0
		C433,99,431,101,428.5,101z"/>
	<path id="XMLID_10_" class="st2" d="M424,141.5v-45c0-2.5,2-4.5,4.5-4.5l0,0c2.5,0,4.5,2,4.5,4.5v45c0,2.5-2,4.5-4.5,4.5l0,0
		C426,146,424,144,424,141.5z"/>
	<path id="XMLID_11_" class="st2" d="M428.5,146h-63c-2.5,0-4.5-2-4.5-4.5l0,0c0-2.5,2-4.5,4.5-4.5h63c2.5,0,4.5,2,4.5,4.5l0,0
		C433,144,431,146,428.5,146z"/>
</g>
<g id="XMLID_12_">
	<path id="XMLID_1_" class="st3" d="M156.5,142.7L156.5,142.7c-3,0-5.5-2.5-5.5-5.5v-89c0-3,2.5-5.5,5.5-5.5l0,0
		c3,0,5.5,2.5,5.5,5.5v89C162,140.2,159.5,142.7,156.5,142.7z"/>
	<path id="XMLID_2_" class="st3" d="M200.5,146h-45c-2.5,0-4.5-2-4.5-4.5v-3.1c0-2.5,2-4.5,4.5-4.5h45c2.5,0,4.5,2,4.5,4.5v3.1
		C205,144,203,146,200.5,146z"/>
	<path id="XMLID_14_" class="st3" d="M168,129.7"/>
	<path id="XMLID_13_" class="st3" d="M168,48.7"/>
</g>
</svg>
