<?xml version="1.0" encoding="utf-8"?>
<!-- Generator: Adobe Illustrator 19.0.0, SVG Export Plug-In . SVG Version: 6.00 Build 0)  -->
<svg version="1.1" id="Layer_1" xmlns="http://www.w3.org/2000/svg" xmlns:xlink="http://www.w3.org/1999/xlink" x="0px" y="0px"
	 viewBox="0 0 612 350" style="enable-background:new 0 0 612 350;" xml:space="preserve">
<style type="text/css">
	.st0{stroke:#000000;stroke-miterlimit:10;}
	.st1{fill:none;stroke:#000000;stroke-miterlimit:10;}
</style>
<g id="XMLID_15_">
	<path id="XMLID_3_" class="st0" d="M104.5,117L104.5,117c-3,0-5.5-2.5-5.5-5.5v-89c0-3,2.5-5.5,5.5-5.5h0c3,0,5.5,2.5,5.5,5.5v89
		C110,114.5,107.5,117,104.5,117z"/>
	<path id="XMLID_5_" class="st0" d="M139.5,55.4l-38.3-28.5c-2.4-1.8-2.9-5.3-1.1-7.7l0,0c1.8-2.4,5.3-2.9,7.7-1.1l38.3,28.5
		c2.4,1.8,2.9,5.3,1.1,7.7v0C145.4,56.7,141.9,57.2,139.5,55.4z"/>
	<path id="XMLID_6_" class="st0" d="M185.5,116L185.5,116c-3,0-5.5-2.5-5.5-5.5v-89c0-3,2.5-5.5,5.5-5.5l0,0c3,0,5.5,2.5,5.5,5.5v89
		C191,113.5,188.5,116,185.5,116z"/>
	<path id="XMLID_4_" class="st0" d="M148.5,55.4l38.3-28.5c2.4-1.8,2.9-5.3,1.1-7.7v0c-1.8-2.4-5.3-2.9-7.7-1.1l-38.3,28.5
		c-2.4,1.8-2.9,5.3-1.1,7.7v0C142.6,56.7,146.1,57.2,148.5,55.4z"/>
</g>
<g id="XMLID_16_">
	<path id="XMLID_7_" class="st0" d="M301.5,27h-63c-2.5,0-4.5-2-4.5-4.5v0c0-2.5,2-4.5,4.5-4.5h63c2.5,0,4.5,2,4.5,4.5v0
		C306,25,304,27,301.5,27z"/>
	<path id="XMLID_8_" class="st0" d="M234,67.5v-45c0-2.5,2-4.5,4.5-4.5l0,0c2.5,0,4.5,2,4.5,4.5v45c0,2.5-2,4.5-4.5,4.5l0,0
		C236,72,234,70,234,67.5z"/>
	<path id="XMLID_9_" class="st0" d="M301.5,72h-63c-2.5,0-4.5-2-4.5-4.5v0c0-2.5,2-4.5,4.5-4.5h63c2.5,0,4.5,2,4.5,4.5v0
		C306,70,304,72,301.5,72z"/>
	<path id="XMLID_10_" class="st0" d="M297,112.5v-45c0-2.5,2-4.5,4.5-4.5l0,0c2.5,0,4.5,2,4.5,4.5v45c0,2.5-2,4.5-4.5,4.5l0,0
		C299,117,297,115,297,112.5z"/>
	<path id="XMLID_11_" class="st0" d="M301.5,117h-63c-2.5,0-4.5-2-4.5-4.5v0c0-2.5,2-4.5,4.5-4.5h63c2.5,0,4.5,2,4.5,4.5v0
		C306,115,304,117,301.5,117z"/>
</g>
<g id="XMLID_12_">
	<path id="XMLID_1_" class="st0" d="M23.5,113.7L23.5,113.7c-3,0-5.5-2.5-5.5-5.5v-89c0-3,2.5-5.5,5.5-5.5h0c3,0,5.5,2.5,5.5,5.5v89
		C29,111.2,26.5,113.7,23.5,113.7z"/>
	<path id="XMLID_2_" class="st0" d="M67.5,117h-45c-2.5,0-4.5-2-4.5-4.5v-3.1c0-2.5,2-4.5,4.5-4.5h45c2.5,0,4.5,2,4.5,4.5v3.1
		C72,115,70,117,67.5,117z"/>
	<path id="XMLID_14_" class="st1" d="M35,100.7"/>
	<path id="XMLID_13_" class="st1" d="M35,19.7"/>
</g>
</svg>
